# File created by Blade
# Date/Time:  Wed Jan 21 19:13:57 2015
# Frame Rate: 120.000 fps
#------------------------------------------------------
:FULLY-SPECIFIED
:DEGREES
760
root 6.411525 29.703205 11.751712 84.650074 63.206458 8.255169
RightUpLeg -112.356527 -4.358072 2.100155
RightLeg 37.474409 -0.000000 -0.000000
RightFoot -9.584193 -7.221664 18.034851
RightToeBase 16.192490 -0.000000 -0.000000
LeftUpLeg -53.420886 9.675741 3.092813
LeftLeg 17.797481 -0.000000 -0.000000
LeftFoot -14.272322 -3.241960 -9.110547
LeftToeBase -3.356436 -0.000000 0.000000
Spine -28.562790 -8.475260 11.112404
RightShoulder -12.427818 10.187131 -28.760770
RightArm -4.281294 -33.185376 88.278115
RightForeArm 7.350700 -0.000000 28.094314
RightHand 16.722473 -0.000000 -3.028732
RightHandThumb1 -24.326973 -0.000000 -32.862282
LeftShoulder 0.002280 1.988610 22.833562
LeftArm 42.364813 40.834987 -78.276222
LeftForeArm 27.002071 -0.000000 48.191086
LeftHand -18.563407 -0.000000 7.293193
LeftHandThumb1 -26.253704 0.000000 33.147579
Head -1.623951 11.156148 4.307393
761
root 6.443693 29.792859 11.868528 85.207655 63.226762 8.667849
RightUpLeg -111.998571 -4.393799 1.587290
RightLeg 36.878662 -0.000000 -0.000000
RightFoot -9.712982 -7.751376 18.070693
RightToeBase 16.175137 -0.000000 -0.000000
LeftUpLeg -53.657811 9.703765 3.138473
LeftLeg 17.538623 -0.000000 -0.000000
LeftFoot -13.544426 -3.950404 -9.504151
LeftToeBase -1.982035 -0.000000 0.000000
Spine -28.511074 -8.547646 11.320965
RightShoulder -12.417943 10.169500 -28.633085
RightArm -4.427181 -33.456202 88.975887
RightForeArm 7.398766 0.000000 27.739207
RightHand 16.622770 -0.000000 -2.777192
RightHandThumb1 -24.326973 -0.000000 -32.862282
LeftShoulder 0.018348 2.149998 22.804980
LeftArm 42.420654 41.258596 -77.612831
LeftForeArm 26.779960 -0.000000 46.401370
LeftHand -18.892318 -0.000000 6.624379
LeftHandThumb1 -26.253704 0.000000 33.147579
Head -1.188679 11.308909 4.054644
762
root 6.472527 29.886159 11.975404 86.021349 63.198640 9.344603
RightUpLeg -111.677752 -4.572592 0.998134
RightLeg 36.265276 -0.000000 -0.000000
RightFoot -9.791118 -8.252715 18.193258
RightToeBase 16.246037 -0.000000 -0.000000
LeftUpLeg -53.937101 9.623218 3.084191
LeftLeg 17.196311 -0.000000 -0.000000
LeftFoot -12.532633 -4.587270 -9.803990
LeftToeBase -1.291779 -0.000000 0.000000
Spine -28.510881 -8.749666 11.476987
RightShoulder -12.394251 10.198162 -28.502395
RightArm -4.754675 -33.630666 89.616275
RightForeArm 7.249042 -0.000000 27.528842
RightHand 16.222827 -0.000000 -2.663871
RightHandThumb1 -24.326973 -0.000000 -32.862282
LeftShoulder -0.016980 2.427674 22.781811
LeftArm 42.872627 41.746664 -76.646352
LeftForeArm 26.330889 -0.000000 44.507575
LeftHand -19.315170 -0.000000 6.295040
LeftHandThumb1 -26.253704 0.000000 33.147579
Head -0.757701 11.488584 3.845878
763
root 6.504265 29.977343 12.077464 86.877962 63.212767 10.094423
RightUpLeg -111.394132 -4.796456 0.676465
RightLeg 35.751613 -0.000000 -0.000000
RightFoot -9.793742 -8.546964 18.239719
RightToeBase 16.092104 -0.000000 -0.000000
LeftUpLeg -54.191031 9.539295 3.004195
LeftLeg 16.856575 -0.000000 -0.000000
LeftFoot -11.338455 -4.969512 -9.851181
LeftToeBase -0.985658 -0.000000 0.000000
Spine -28.539888 -8.933717 11.641748
RightShoulder -12.378753 9.974532 -28.312206
RightArm -4.945223 -33.935808 89.986399
RightForeArm 7.137030 0.000000 27.342059
RightHand 15.958782 0.000000 -2.430558
RightHandThumb1 -24.326973 -0.000000 -32.862282
LeftShoulder -0.063585 2.552821 22.725983
LeftArm 43.423814 42.360499 -75.601770
LeftForeArm 25.826217 -0.000000 42.427384
LeftHand -19.646340 -0.000000 5.862062
LeftHandThumb1 -26.253704 0.000000 33.147579
Head -0.252536 11.581673 3.697786
764
root 6.530366 30.070756 12.176359 87.755734 63.172925 10.856357
RightUpLeg -111.110442 -5.034381 0.323084
RightLeg 35.180180 -0.000000 -0.000000
RightFoot -9.746152 -8.820324 18.323362
RightToeBase 16.013876 -0.000000 -0.000000
LeftUpLeg -54.478846 9.497448 2.799619
LeftLeg 16.630120 -0.000000 -0.000000
LeftFoot -9.895955 -5.058053 -9.638381
LeftToeBase -1.171081 -0.000000 0.000000
Spine -28.596450 -9.082290 11.706179
RightShoulder -12.412940 9.683600 -28.156554
RightArm -5.138499 -34.281719 90.307262
RightForeArm 6.976596 -0.000000 27.059057
RightHand 15.922467 0.000000 -2.250021
RightHandThumb1 -24.326973 -0.000000 -32.862282
LeftShoulder -0.080102 2.573767 22.694823
LeftArm 43.955509 42.999274 -74.548077
LeftForeArm 25.264882 0.000000 40.435518
LeftHand -19.914634 -0.000000 5.199231
LeftHandThumb1 -26.253704 0.000000 33.147579
Head 0.274029 11.646115 3.624853
765
root 6.554836 30.161329 12.273161 88.621574 63.256446 11.687837
RightUpLeg -110.782859 -5.300364 0.304182
RightLeg 34.646453 -0.000000 -0.000000
RightFoot -9.682383 -8.917963 18.362877
RightToeBase 15.986158 -0.000000 -0.000000
LeftUpLeg -54.814219 9.613473 2.538249
LeftLeg 16.674030 -0.000000 -0.000000
LeftFoot -8.311089 -5.346752 -9.045652
LeftToeBase -1.736948 -0.000000 0.000000
Spine -28.616541 -9.278105 11.900936
RightShoulder -12.418866 9.133297 -27.970242
RightArm -5.060102 -34.740509 90.358683
RightForeArm 6.845747 0.000000 26.814515
RightHand 15.499683 -0.000000 -1.772076
RightHandThumb1 -24.326973 -0.000000 -32.862282
LeftShoulder -0.121651 2.755942 22.618599
LeftArm 44.688125 43.555632 -73.403670
LeftForeArm 24.766897 -0.000000 38.544443
LeftHand -20.160064 0.000000 4.411443
LeftHandThumb1 -26.253704 0.000000 33.147579
Head 0.797294 11.709350 3.546993
766
root 6.589115 30.261728 12.355155 89.638523 63.265982 12.689942
RightUpLeg -110.476355 -5.644866 0.643491
RightLeg 34.060561 -0.000000 -0.000000
RightFoot -9.496455 -8.694796 18.285545
RightToeBase 16.052475 -0.000000 -0.000000
LeftUpLeg -54.827231 9.055227 2.806808
LeftLeg 16.365547 -0.000000 -0.000000
LeftFoot -6.713402 -4.965367 -8.950461
LeftToeBase -2.074942 -0.000000 0.000000
Spine -28.695029 -9.487810 12.028201
RightShoulder -12.456984 8.604077 -27.744554
RightArm -5.061351 -35.409802 90.256043
RightForeArm 7.000762 -0.000000 26.568965
RightHand 15.413248 -0.000000 -1.596901
RightHandThumb1 -24.326973 -0.000000 -32.862282
LeftShoulder -0.081335 2.923933 22.476620
LeftArm 45.343778 44.014582 -72.375282
LeftForeArm 24.338685 0.000000 36.740961
LeftHand -20.430334 -0.000000 3.694817
LeftHandThumb1 -26.253704 0.000000 33.147579
Head 1.394595 11.684850 3.454612
767
root 6.625723 30.355029 12.440633 90.571555 63.385465 13.646811
RightUpLeg -110.148716 -5.972170 1.111040
RightLeg 33.564354 -0.000000 -0.000000
RightFoot -9.364306 -8.399330 18.413856
RightToeBase 15.990129 -0.000000 -0.000000
LeftUpLeg -54.919765 8.828809 2.875251
LeftLeg 16.209653 -0.000000 -0.000000
LeftFoot -5.214148 -4.993100 -8.732852
LeftToeBase -2.243976 -0.000000 0.000000
Spine -28.775309 -9.690228 12.284675
RightShoulder -12.519103 8.002145 -27.574771
RightArm -4.982584 -35.904897 90.122553
RightForeArm 7.048711 0.000000 26.278657
RightHand 15.222492 -0.000000 -1.315411
RightHandThumb1 -24.326973 -0.000000 -32.862282
LeftShoulder -0.089791 3.118662 22.291528
LeftArm 45.821958 44.395480 -71.502231
LeftForeArm 24.133191 -0.000000 35.197178
LeftHand -20.560080 -0.000000 2.606942
LeftHandThumb1 -26.253704 0.000000 33.147579
Head 1.998258 11.673419 3.313564
768
root 6.659880 30.450468 12.516267 91.366515 63.462885 14.441707
RightUpLeg -109.792274 -6.256275 1.516838
RightLeg 32.964442 -0.000000 -0.000000
RightFoot -9.293353 -8.001015 19.124109
RightToeBase 16.372582 -0.000000 -0.000000
LeftUpLeg -55.047469 8.749761 2.787163
LeftLeg 16.063785 -0.000000 -0.000000
LeftFoot -3.826520 -5.046200 -8.342071
LeftToeBase -1.902690 -0.000000 0.000000
Spine -28.843280 -9.809326 12.507037
RightShoulder -12.642254 7.553703 -27.472701
RightArm -5.077122 -36.578629 90.028126
RightForeArm 7.472299 -0.000000 25.977063
RightHand 15.198402 -0.000000 -0.681824
RightHandThumb1 -24.326973 -0.000000 -32.862282
LeftShoulder -0.131561 3.227179 22.127618
LeftArm 46.008283 44.705267 -70.913807
LeftForeArm 23.852966 -0.000000 33.932654
LeftHand -20.708210 -0.000000 1.521449
LeftHandThumb1 -26.253704 0.000000 33.147579
Head 2.475652 11.648732 3.128295
769
root 6.695125 30.542474 12.583465 92.038223 63.453456 15.154783
RightUpLeg -109.476987 -6.515096 1.995287
RightLeg 32.490069 -0.000000 -0.000000
RightFoot -8.975334 -7.486511 19.343667
RightToeBase 16.352769 -0.000000 -0.000000
LeftUpLeg -55.093643 8.688238 2.605155
LeftLeg 15.858772 -0.000000 -0.000000
LeftFoot -2.522017 -5.167443 -8.219781
LeftToeBase -1.363900 -0.000000 0.000000
Spine -28.872805 -9.873943 12.617550
RightShoulder -12.853401 7.061657 -27.365705
RightArm -5.088903 -37.304705 89.837979
RightForeArm 7.729867 0.000000 25.716018
RightHand 15.040187 -0.000000 -0.123709
RightHandThumb1 -24.326973 -0.000000 -32.862282
LeftShoulder -0.138272 3.203402 21.985236
LeftArm 45.659328 44.882779 -70.850264
LeftForeArm 23.681195 -0.000000 32.972627
LeftHand -20.910732 -0.000000 0.579338
LeftHandThumb1 -26.253704 0.000000 33.147579
Head 2.920362 11.615527 2.944736
